<svg width="128" height="128" viewBox="0 0 128 128" fill="none" xmlns="http://www.w3.org/2000/svg">
<rect x="16" y="16" width="96" height="96" rx="32" fill="white"/>
<path d="M63.4833 32.4357C63.2394 32.71 63.1784 33.2588 63.3004 33.8684C63.4223 34.4172 63.5747 38.3497 63.6662 42.5565L63.8491 50.2691H62.8126C61.5628 50.2691 61.2274 50.513 61.6847 51.0922C61.9591 51.3971 61.7761 51.4885 60.5872 51.4885C59.4288 51.4885 59.124 51.6105 59.0021 52.0982C58.8801 52.586 58.5448 52.7079 56.9901 52.7689C55.8621 52.8298 55.1 53.0127 55.0086 53.2261C54.9171 53.531 56.8681 53.6224 64.093 53.6224C71.3178 53.6224 73.2688 53.531 73.1774 53.2261C73.0859 53.0127 72.2323 52.7994 70.9215 52.7079C69.6716 52.6164 68.9705 52.464 69.2144 52.3116C69.9155 51.8543 69.2449 51.4885 67.6901 51.4885C66.4403 51.4885 66.2269 51.4275 66.5013 51.0922C66.9585 50.513 66.6232 50.2691 65.2209 50.2691C64.2149 50.2691 64.093 50.2082 64.3673 49.8424C64.6417 49.5375 64.7331 47.2816 64.6722 42.0383C64.6722 37.9839 64.7331 34.6001 64.8246 34.5086C65.1599 34.1733 65.0075 32.71 64.6417 32.3442C64.1539 31.8565 63.9405 31.8869 63.4833 32.4357Z" fill="#926F34"/>
<path d="M55.9841 36.094C56.228 37.0085 54.4294 44.4162 53.8197 45.1479C53.4234 45.5746 53.4539 45.7271 54.0026 46.2758C55.4658 47.739 58.6667 47.739 59.9776 46.3063C60.7092 45.5137 60.3739 45.2393 58.6667 45.2393H57.2339L57.1425 41.3983L57.051 37.5572L58.2704 37.5267C58.9106 37.4962 59.8251 37.3438 60.2824 37.1609C60.7092 37.0085 61.5628 36.8561 62.142 36.8561C62.7212 36.8561 63.1784 36.7036 63.1784 36.5512C63.1784 35.9415 62.142 35.8501 60.7092 36.3378C58.4533 37.1609 56.7767 36.978 56.7767 35.911C56.7767 35.5757 56.5633 35.3318 56.2889 35.3318C55.9231 35.3318 55.8317 35.5147 55.9841 36.094ZM56.7767 41.5812V45.3917H55.7097C54.9171 45.3917 54.6428 45.2698 54.6428 44.8735C54.6428 43.959 56.2889 37.7706 56.5328 37.7706C56.6547 37.7706 56.7767 39.4777 56.7767 41.5812Z" fill="#926F34"/>
<path d="M71.4093 35.911C71.4093 36.978 69.7326 37.1609 67.4768 36.3378C66.044 35.85 65.0075 35.9415 65.0075 36.5512C65.0075 36.7036 65.4648 36.856 66.044 36.856C66.6232 36.856 67.4768 37.0085 67.9035 37.1609C68.3608 37.3438 69.3973 37.5267 70.2508 37.5877C71.0739 37.6486 71.7751 37.7401 71.836 37.8011C71.897 37.862 72.3238 39.4777 72.7811 41.3677C73.6651 45.0259 73.6042 45.5441 72.2933 45.3307C71.5922 45.2393 71.5617 45.1173 71.3788 42.1908C71.2264 39.1119 71.013 39.6301 70.9825 43.2578C70.952 45.2088 70.952 45.2393 70.0679 45.3307C68.8181 45.4832 68.6352 45.1173 69.1229 43.4102C69.8546 40.8495 70.4642 37.984 70.2204 38.2583C70.0984 38.4107 69.6107 39.9655 69.1534 41.7336C68.6657 43.5017 68.1474 45.1173 67.995 45.3307C67.2024 46.2758 70.1594 47.7695 72.1409 47.4037C72.6591 47.3122 73.4822 46.8855 74.0004 46.4892C74.793 45.849 74.854 45.6966 74.4577 45.2393C73.8175 44.4772 71.9885 37.1609 72.2019 36.1549C72.3238 35.5452 72.2628 35.3318 71.897 35.3318C71.6227 35.3318 71.4093 35.5757 71.4093 35.911Z" fill="#926F34"/>
<path d="M58.0266 38.8374C58.0266 38.9898 58.3619 40.3617 58.7582 41.8859C59.185 43.3796 59.4593 44.0808 59.3679 43.3796C59.2154 42.1602 58.0875 38.2582 58.0266 38.8374Z" fill="#926F34"/>
<path d="M41.5954 51.2448C41.0466 51.7935 41.1686 52.4032 41.8088 52.4032C42.5099 52.4032 42.8452 51.6411 42.327 51.2143C42.0526 51.0009 41.8392 51.0009 41.5954 51.2448Z" fill="#926F34"/>
<path d="M85.6455 51.3667C85.3712 51.6716 85.7675 52.4032 86.2247 52.4032C86.4686 52.4032 86.6515 52.1288 86.6515 51.7935C86.6515 51.2143 86.0723 50.9704 85.6455 51.3667Z" fill="#926F34"/>
<path d="M37.5714 55.4212C37.2971 55.6955 37.1446 56.2138 37.2056 56.5796C37.3275 57.4636 38.5469 57.4331 38.9737 56.5186C39.2176 56.0004 39.1566 55.787 38.6689 55.4212C38.0897 54.9944 37.9982 54.9944 37.5714 55.4212Z" fill="#926F34"/>
<path d="M89.5171 55.5736C89.0293 55.8479 88.9684 56.0309 89.2122 56.5186C89.7 57.4331 90.7974 57.4636 90.9803 56.5796C91.1632 55.6041 90.3707 55.0858 89.5171 55.5736Z" fill="#926F34"/>
<path d="M48.1191 56.8843C47.7533 57.2501 47.9362 58.439 48.4239 58.6219C49.0641 58.8658 78.0854 58.8658 79.3048 58.6219C80.1278 58.439 80.2803 58.2866 80.1888 57.6159L80.0974 56.8233L64.2149 56.7623C55.4658 56.7014 48.241 56.7623 48.1191 56.8843Z" fill="#926F34"/>
<path d="M51.3504 60.8474C50.8322 60.9389 50.6798 61.1523 50.7407 61.64L50.8322 62.3107H64.093C77.3537 62.3107 77.3537 62.3107 77.4452 61.6705C77.5367 61.0913 77.3537 60.9998 75.921 60.8474C74.1529 60.634 52.4784 60.634 51.3504 60.8474Z" fill="#926F34"/>
<path d="M35.6509 61.3657C35.529 61.64 35.1022 61.8534 34.6449 61.8534C33.8523 61.8534 33.8523 61.8839 34.3096 62.4022C34.6144 62.707 34.8278 63.2252 34.8278 63.5606C34.8278 64.0178 35.0412 64.1398 35.8948 64.1398C36.6874 64.1398 36.9617 64.0178 36.9617 63.652C36.9617 63.3777 37.1751 62.9814 37.419 62.768C38.0592 62.2192 37.9982 61.8534 37.2361 61.8534C36.8703 61.8534 36.413 61.64 36.1996 61.3657C35.8643 60.8779 35.8338 60.8779 35.6509 61.3657Z" fill="#926F34"/>
<path d="M91.9863 61.3046C91.8644 61.6095 91.4376 61.8533 91.0413 61.8533C90.2182 61.8533 90.1573 62.0667 90.767 62.8593C90.9803 63.1947 91.1328 63.591 91.0413 63.8044C90.9499 64.0482 91.2852 64.1702 92.1388 64.1397C93.2057 64.1397 93.3581 64.0482 93.3581 63.4385C93.3581 63.0727 93.5715 62.6764 93.8154 62.585C94.4861 62.3106 94.3641 61.8533 93.6325 61.8533C93.2667 61.8533 92.7789 61.6095 92.5655 61.3046C92.1997 60.8169 92.1692 60.8169 91.9863 61.3046Z" fill="#926F34"/>
<path d="M50.8322 64.9018C50.7407 65.0847 50.7407 65.481 50.8322 65.8163C51.0151 66.3651 51.2895 66.426 53.3014 66.426H55.5573V65.5115V64.597H53.3014C52.0516 64.597 50.9236 64.7494 50.8322 64.9018Z" fill="#926F34"/>
<path d="M58.3009 64.8103C58.3009 64.9628 58.2399 71.5779 58.2094 79.5344L58.1485 94.0146L57.112 93.9231C55.7402 93.8316 51.8991 92.2769 49.7043 90.9356C47.4179 89.5333 43.3635 85.7228 41.6563 83.3145C38.9127 79.5039 37.2361 75.0227 36.6874 70.1451C36.5349 68.7429 36.352 67.5235 36.2301 67.432C36.1386 67.3406 35.8338 67.3406 35.5594 67.4625C35.1631 67.6149 35.1022 67.9503 35.2851 69.5659C36.6264 81.4549 44.217 91.0575 55.2524 94.7767C58.6057 95.9046 59.6422 96.0265 64.2149 95.996C68.1474 95.996 69.3363 95.8741 71.5617 95.2949C76.6221 93.9536 82.7495 90.143 85.9199 86.3324C90.1573 81.272 92.9923 74.3825 93.0533 69.0782C93.0533 67.554 92.9923 67.3406 92.4436 67.3406C91.9558 67.3406 91.8339 67.554 91.8339 68.377C91.8339 70.2061 90.584 75.6324 89.7 77.7358C87.0173 84.0461 82.2618 89.1675 76.4392 92.0026C73.7871 93.3134 70.5862 94.3499 70.2508 94.0146C70.1289 93.8926 70.0375 87.2775 70.0375 79.2905V64.7494H69.3363H68.6352L68.5742 79.6868L68.5132 94.6242L66.2879 94.8986C64.9465 95.051 63.2089 95.051 62.02 94.8986L59.9775 94.6242L59.8861 79.5954L59.8251 64.597H59.063C58.6362 64.597 58.3009 64.6884 58.3009 64.8103Z" fill="#926F34"/>
<path d="M63.6357 64.9018C63.5138 65.0847 63.4528 70.9378 63.5138 77.8882L63.6357 90.5089H64.4588H65.2819L65.2209 77.6139L65.1599 64.7494L64.4893 64.658C64.1539 64.597 63.7576 64.7189 63.6357 64.9018Z" fill="#926F34"/>
<path d="M72.4762 64.9018C72.3848 65.0542 72.3848 65.481 72.4762 65.8163C72.6591 66.3955 72.903 66.4565 75.0064 66.3651C77.2928 66.2736 77.3537 66.2431 77.3537 65.5115C77.3537 64.7799 77.2928 64.7494 75.0064 64.6579C73.6041 64.597 72.5982 64.6884 72.4762 64.9018Z" fill="#926F34"/>
</svg>
