<svg width="96" height="96" viewBox="0 0 96 96" fill="none" xmlns="http://www.w3.org/2000/svg">
<rect width="96" height="96" rx="32" fill="white"/>
<path d="M47.4833 16.4357C47.2394 16.71 47.1784 17.2588 47.3004 17.8684C47.4223 18.4172 47.5747 22.3497 47.6662 26.5565L47.8491 34.2691H46.8126C45.5628 34.2691 45.2274 34.513 45.6847 35.0922C45.9591 35.3971 45.7761 35.4885 44.5872 35.4885C43.4288 35.4885 43.124 35.6105 43.0021 36.0982C42.8801 36.586 42.5448 36.7079 40.9901 36.7689C39.8621 36.8298 39.1 37.0127 39.0086 37.2261C38.9171 37.531 40.8681 37.6224 48.093 37.6224C55.3178 37.6224 57.2688 37.531 57.1774 37.2261C57.0859 37.0127 56.2323 36.7994 54.9215 36.7079C53.6716 36.6164 52.9705 36.464 53.2144 36.3116C53.9155 35.8543 53.2449 35.4885 51.6901 35.4885C50.4403 35.4885 50.2269 35.4275 50.5013 35.0922C50.9585 34.513 50.6232 34.2691 49.2209 34.2691C48.2149 34.2691 48.093 34.2082 48.3673 33.8424C48.6417 33.5375 48.7331 31.2816 48.6722 26.0383C48.6722 21.9839 48.7331 18.6001 48.8246 18.5086C49.1599 18.1733 49.0075 16.71 48.6417 16.3442C48.1539 15.8565 47.9405 15.8869 47.4833 16.4357Z" fill="#926F34"/>
<path d="M39.9841 20.094C40.228 21.0085 38.4294 28.4162 37.8197 29.1479C37.4234 29.5746 37.4539 29.7271 38.0026 30.2758C39.4658 31.739 42.6667 31.739 43.9776 30.3063C44.7092 29.5137 44.3739 29.2393 42.6667 29.2393H41.2339L41.1425 25.3983L41.051 21.5572L42.2704 21.5267C42.9106 21.4962 43.8251 21.3438 44.2824 21.1609C44.7092 21.0085 45.5628 20.8561 46.142 20.8561C46.7212 20.8561 47.1784 20.7036 47.1784 20.5512C47.1784 19.9415 46.142 19.8501 44.7092 20.3378C42.4533 21.1609 40.7767 20.978 40.7767 19.911C40.7767 19.5757 40.5633 19.3318 40.2889 19.3318C39.9231 19.3318 39.8317 19.5147 39.9841 20.094ZM40.7767 25.5812V29.3917H39.7097C38.9171 29.3917 38.6428 29.2698 38.6428 28.8735C38.6428 27.959 40.2889 21.7706 40.5328 21.7706C40.6547 21.7706 40.7767 23.4777 40.7767 25.5812Z" fill="#926F34"/>
<path d="M55.4093 19.911C55.4093 20.978 53.7326 21.1609 51.4768 20.3378C50.044 19.85 49.0075 19.9415 49.0075 20.5512C49.0075 20.7036 49.4648 20.856 50.044 20.856C50.6232 20.856 51.4768 21.0085 51.9035 21.1609C52.3608 21.3438 53.3973 21.5267 54.2508 21.5877C55.0739 21.6486 55.7751 21.7401 55.836 21.8011C55.897 21.862 56.3238 23.4777 56.7811 25.3677C57.6651 29.0259 57.6042 29.5441 56.2933 29.3307C55.5922 29.2393 55.5617 29.1173 55.3788 26.1908C55.2264 23.1119 55.013 23.6301 54.9825 27.2578C54.952 29.2088 54.952 29.2393 54.0679 29.3307C52.8181 29.4832 52.6352 29.1173 53.1229 27.4102C53.8546 24.8495 54.4642 21.984 54.2204 22.2583C54.0984 22.4107 53.6107 23.9655 53.1534 25.7336C52.6657 27.5017 52.1474 29.1173 51.995 29.3307C51.2024 30.2758 54.1594 31.7695 56.1409 31.4037C56.6591 31.3122 57.4822 30.8855 58.0004 30.4892C58.793 29.849 58.854 29.6966 58.4577 29.2393C57.8175 28.4772 55.9885 21.1609 56.2019 20.1549C56.3238 19.5452 56.2628 19.3318 55.897 19.3318C55.6227 19.3318 55.4093 19.5757 55.4093 19.911Z" fill="#926F34"/>
<path d="M42.0266 22.8374C42.0266 22.9898 42.3619 24.3617 42.7582 25.8859C43.185 27.3796 43.4593 28.0808 43.3679 27.3796C43.2154 26.1602 42.0875 22.2582 42.0266 22.8374Z" fill="#926F34"/>
<path d="M25.5954 35.2448C25.0466 35.7935 25.1686 36.4032 25.8088 36.4032C26.5099 36.4032 26.8452 35.6411 26.327 35.2143C26.0526 35.0009 25.8392 35.0009 25.5954 35.2448Z" fill="#926F34"/>
<path d="M69.6455 35.3667C69.3712 35.6716 69.7675 36.4032 70.2247 36.4032C70.4686 36.4032 70.6515 36.1288 70.6515 35.7935C70.6515 35.2143 70.0723 34.9704 69.6455 35.3667Z" fill="#926F34"/>
<path d="M21.5714 39.4212C21.2971 39.6955 21.1446 40.2138 21.2056 40.5796C21.3275 41.4636 22.5469 41.4331 22.9737 40.5186C23.2176 40.0004 23.1566 39.787 22.6689 39.4212C22.0897 38.9944 21.9982 38.9944 21.5714 39.4212Z" fill="#926F34"/>
<path d="M73.5171 39.5736C73.0293 39.8479 72.9684 40.0309 73.2122 40.5186C73.7 41.4331 74.7974 41.4636 74.9803 40.5796C75.1632 39.6041 74.3707 39.0858 73.5171 39.5736Z" fill="#926F34"/>
<path d="M32.1191 40.8843C31.7533 41.2501 31.9362 42.439 32.4239 42.6219C33.0641 42.8658 62.0854 42.8658 63.3048 42.6219C64.1278 42.439 64.2803 42.2866 64.1888 41.6159L64.0974 40.8233L48.2149 40.7623C39.4658 40.7014 32.241 40.7623 32.1191 40.8843Z" fill="#926F34"/>
<path d="M35.3504 44.8474C34.8322 44.9389 34.6798 45.1523 34.7407 45.64L34.8322 46.3107H48.093C61.3537 46.3107 61.3537 46.3107 61.4452 45.6705C61.5367 45.0913 61.3537 44.9998 59.921 44.8474C58.1529 44.634 36.4784 44.634 35.3504 44.8474Z" fill="#926F34"/>
<path d="M19.6509 45.3657C19.529 45.64 19.1022 45.8534 18.6449 45.8534C17.8523 45.8534 17.8523 45.8839 18.3096 46.4022C18.6144 46.707 18.8278 47.2252 18.8278 47.5606C18.8278 48.0178 19.0412 48.1398 19.8948 48.1398C20.6874 48.1398 20.9617 48.0178 20.9617 47.652C20.9617 47.3777 21.1751 46.9814 21.419 46.768C22.0592 46.2192 21.9982 45.8534 21.2361 45.8534C20.8703 45.8534 20.413 45.64 20.1996 45.3657C19.8643 44.8779 19.8338 44.8779 19.6509 45.3657Z" fill="#926F34"/>
<path d="M75.9863 45.3046C75.8644 45.6095 75.4376 45.8533 75.0413 45.8533C74.2182 45.8533 74.1573 46.0667 74.767 46.8593C74.9803 47.1947 75.1328 47.591 75.0413 47.8044C74.9499 48.0482 75.2852 48.1702 76.1388 48.1397C77.2057 48.1397 77.3581 48.0482 77.3581 47.4385C77.3581 47.0727 77.5715 46.6764 77.8154 46.585C78.4861 46.3106 78.3641 45.8533 77.6325 45.8533C77.2667 45.8533 76.7789 45.6095 76.5655 45.3046C76.1997 44.8169 76.1692 44.8169 75.9863 45.3046Z" fill="#926F34"/>
<path d="M34.8322 48.9018C34.7407 49.0847 34.7407 49.481 34.8322 49.8163C35.0151 50.3651 35.2895 50.426 37.3014 50.426H39.5573V49.5115V48.597H37.3014C36.0516 48.597 34.9236 48.7494 34.8322 48.9018Z" fill="#926F34"/>
<path d="M42.3009 48.8103C42.3009 48.9628 42.2399 55.5779 42.2094 63.5344L42.1485 78.0146L41.112 77.9231C39.7402 77.8316 35.8991 76.2769 33.7043 74.9356C31.4179 73.5333 27.3635 69.7228 25.6563 67.3145C22.9127 63.5039 21.2361 59.0227 20.6874 54.1451C20.5349 52.7429 20.352 51.5235 20.2301 51.432C20.1386 51.3406 19.8338 51.3406 19.5594 51.4625C19.1631 51.6149 19.1022 51.9503 19.2851 53.5659C20.6264 65.4549 28.217 75.0575 39.2524 78.7767C42.6057 79.9046 43.6422 80.0265 48.2149 79.996C52.1474 79.996 53.3363 79.8741 55.5617 79.2949C60.6221 77.9536 66.7495 74.143 69.9199 70.3324C74.1573 65.272 76.9923 58.3825 77.0533 53.0782C77.0533 51.554 76.9923 51.3406 76.4436 51.3406C75.9558 51.3406 75.8339 51.554 75.8339 52.377C75.8339 54.2061 74.584 59.6324 73.7 61.7358C71.0173 68.0461 66.2618 73.1675 60.4392 76.0026C57.7871 77.3134 54.5862 78.3499 54.2508 78.0146C54.1289 77.8926 54.0375 71.2775 54.0375 63.2905V48.7494H53.3363H52.6352L52.5742 63.6868L52.5132 78.6242L50.2879 78.8986C48.9465 79.051 47.2089 79.051 46.02 78.8986L43.9775 78.6242L43.8861 63.5954L43.8251 48.597H43.063C42.6362 48.597 42.3009 48.6884 42.3009 48.8103Z" fill="#926F34"/>
<path d="M47.6357 48.9018C47.5138 49.0847 47.4528 54.9378 47.5138 61.8882L47.6357 74.5089H48.4588H49.2819L49.2209 61.6139L49.1599 48.7494L48.4893 48.658C48.1539 48.597 47.7576 48.7189 47.6357 48.9018Z" fill="#926F34"/>
<path d="M56.4762 48.9018C56.3848 49.0542 56.3848 49.481 56.4762 49.8163C56.6591 50.3955 56.903 50.4565 59.0064 50.3651C61.2928 50.2736 61.3537 50.2431 61.3537 49.5115C61.3537 48.7799 61.2928 48.7494 59.0064 48.6579C57.6041 48.597 56.5982 48.6884 56.4762 48.9018Z" fill="#926F34"/>
</svg>
