<svg width="300" height="300" viewBox="0 0 300 300" fill="none" xmlns="http://www.w3.org/2000/svg">
<path d="M146.954 11.9059C145.887 13.1059 145.621 15.5059 146.154 18.1726C146.687 20.5726 147.354 37.7726 147.754 56.1726L148.554 89.9059H144.021C138.554 89.9059 137.087 90.9726 139.087 93.5059C140.287 94.8392 139.487 95.2392 134.287 95.2392C129.221 95.2392 127.887 95.7726 127.354 97.9059C126.821 100.039 125.354 100.573 118.554 100.839C113.621 101.106 110.287 101.906 109.887 102.839C109.487 104.173 118.021 104.573 149.621 104.573C181.221 104.573 189.754 104.173 189.354 102.839C188.954 101.906 185.221 100.973 179.487 100.573C174.021 100.173 170.954 99.5059 172.021 98.8392C175.087 96.8392 172.154 95.2392 165.354 95.2392C159.887 95.2392 158.954 94.9726 160.154 93.5059C162.154 90.9726 160.687 89.9059 154.554 89.9059C150.154 89.9059 149.621 89.6392 150.821 88.0392C152.021 86.7059 152.421 76.8392 152.154 53.9059C152.154 36.1726 152.421 21.3726 152.821 20.9726C154.287 19.5059 153.621 13.1059 152.021 11.5059C149.887 9.37257 148.954 9.5059 146.954 11.9059Z" fill="#926F34"/>
<path d="M114.154 27.9059C115.221 31.9059 107.354 64.3059 104.687 67.5059C102.954 69.3726 103.087 70.0392 105.487 72.4392C111.887 78.8392 125.887 78.8392 131.621 72.5726C134.821 69.1059 133.354 67.9059 125.887 67.9059H119.621L119.221 51.1059L118.821 34.3059L124.154 34.1726C126.954 34.0392 130.954 33.3726 132.954 32.5726C134.821 31.9059 138.554 31.2392 141.087 31.2392C143.621 31.2392 145.621 30.5726 145.621 29.9059C145.621 27.2392 141.087 26.8392 134.821 28.9726C124.954 32.5726 117.621 31.7726 117.621 27.1059C117.621 25.6392 116.687 24.5726 115.487 24.5726C113.887 24.5726 113.487 25.3726 114.154 27.9059ZM117.621 51.9059V68.5726H112.954C109.487 68.5726 108.287 68.0392 108.287 66.3059C108.287 62.3059 115.487 35.2392 116.554 35.2392C117.087 35.2392 117.621 42.7059 117.621 51.9059Z" fill="#926F34"/>
<path d="M181.621 27.1059C181.621 31.7726 174.287 32.5726 164.421 28.9726C158.154 26.8392 153.621 27.2392 153.621 29.9059C153.621 30.5726 155.621 31.2392 158.154 31.2392C160.687 31.2392 164.421 31.9059 166.287 32.5726C168.287 33.3726 172.821 34.1726 176.554 34.4392C180.154 34.7059 183.221 35.1059 183.487 35.3726C183.754 35.6392 185.621 42.7059 187.621 50.9726C191.487 66.9726 191.221 69.2392 185.487 68.3059C182.421 67.9059 182.287 67.3726 181.487 54.5726C180.821 41.1059 179.887 43.3726 179.754 59.2392C179.621 67.7726 179.621 67.9059 175.754 68.3059C170.287 68.9726 169.487 67.3726 171.621 59.9059C174.821 48.7059 177.487 36.1726 176.421 37.3726C175.887 38.0392 173.754 44.8392 171.754 52.5726C169.621 60.3059 167.354 67.3726 166.687 68.3059C163.221 72.4392 176.154 78.9726 184.821 77.3726C187.087 76.9726 190.687 75.1059 192.954 73.3726C196.421 70.5726 196.687 69.9059 194.954 67.9059C192.154 64.5726 184.154 32.5726 185.087 28.1726C185.621 25.5059 185.354 24.5726 183.754 24.5726C182.554 24.5726 181.621 25.6392 181.621 27.1059Z" fill="#926F34"/>
<path d="M123.087 39.9059C123.087 40.5725 124.554 46.5725 126.287 53.2392C128.154 59.7725 129.354 62.8392 128.954 59.7725C128.287 54.4392 123.354 37.3725 123.087 39.9059Z" fill="#926F34"/>
<path d="M51.2206 94.1726C48.8206 96.5726 49.354 99.2393 52.154 99.2393C55.2206 99.2393 56.6873 95.9059 54.4206 94.0393C53.2206 93.1059 52.2873 93.1059 51.2206 94.1726Z" fill="#926F34"/>
<path d="M243.887 94.7059C242.687 96.0393 244.421 99.2393 246.421 99.2393C247.487 99.2393 248.287 98.0393 248.287 96.5726C248.287 94.0393 245.754 92.9726 243.887 94.7059Z" fill="#926F34"/>
<path d="M33.6206 112.439C32.4206 113.639 31.754 115.906 32.0206 117.506C32.554 121.373 37.8873 121.239 39.754 117.239C40.8206 114.973 40.554 114.039 38.4206 112.439C35.8873 110.573 35.4873 110.573 33.6206 112.439Z" fill="#926F34"/>
<path d="M260.821 113.106C258.687 114.306 258.421 115.106 259.487 117.239C261.621 121.239 266.421 121.373 267.221 117.506C268.021 113.239 264.554 110.973 260.821 113.106Z" fill="#926F34"/>
<path d="M79.754 118.839C78.154 120.439 78.954 125.639 81.0874 126.439C83.8874 127.506 210.821 127.506 216.154 126.439C219.754 125.639 220.421 124.973 220.021 122.039L219.621 118.573L150.154 118.306C111.887 118.039 80.2874 118.306 79.754 118.839Z" fill="#926F34"/>
<path d="M93.8873 136.173C91.6206 136.573 90.954 137.506 91.2206 139.639L91.6206 142.573H149.621C207.621 142.573 207.621 142.573 208.021 139.773C208.421 137.239 207.621 136.839 201.354 136.173C193.621 135.239 98.8206 135.239 93.8873 136.173Z" fill="#926F34"/>
<path d="M25.2207 138.439C24.6873 139.639 22.8207 140.573 20.8207 140.573C17.354 140.573 17.354 140.706 19.354 142.973C20.6873 144.306 21.6207 146.573 21.6207 148.039C21.6207 150.039 22.554 150.573 26.2873 150.573C29.754 150.573 30.954 150.039 30.954 148.439C30.954 147.239 31.8873 145.506 32.954 144.573C35.754 142.173 35.4873 140.573 32.154 140.573C30.554 140.573 28.554 139.639 27.6207 138.439C26.154 136.306 26.0207 136.306 25.2207 138.439Z" fill="#926F34"/>
<path d="M271.621 138.173C271.087 139.506 269.221 140.573 267.487 140.573C263.887 140.573 263.621 141.506 266.287 144.973C267.221 146.439 267.887 148.173 267.487 149.106C267.087 150.173 268.554 150.706 272.287 150.573C276.954 150.573 277.621 150.173 277.621 147.506C277.621 145.906 278.554 144.173 279.621 143.773C282.554 142.573 282.021 140.573 278.821 140.573C277.221 140.573 275.087 139.506 274.154 138.173C272.554 136.039 272.421 136.039 271.621 138.173Z" fill="#926F34"/>
<path d="M91.6206 153.906C91.2206 154.706 91.2206 156.439 91.6206 157.906C92.4206 160.306 93.6206 160.573 102.421 160.573H112.287V156.573V152.573H102.421C96.954 152.573 92.0206 153.239 91.6206 153.906Z" fill="#926F34"/>
<path d="M124.287 153.506C124.287 154.173 124.021 183.106 123.887 217.906L123.621 281.239L119.087 280.839C113.087 280.439 96.2874 273.639 86.6874 267.773C76.6874 261.639 58.954 244.973 51.4873 234.439C39.4873 217.773 32.154 198.173 29.754 176.839C29.0873 170.706 28.2873 165.373 27.754 164.973C27.354 164.573 26.0207 164.573 24.8207 165.106C23.0873 165.773 22.8207 167.239 23.6207 174.306C29.4873 226.306 62.6873 268.306 110.954 284.573C125.621 289.506 130.154 290.039 150.154 289.906C167.354 289.906 172.554 289.373 182.287 286.839C204.421 280.973 231.221 264.306 245.087 247.639C263.621 225.506 276.021 195.373 276.287 172.173C276.287 165.506 276.021 164.573 273.621 164.573C271.487 164.573 270.954 165.506 270.954 169.106C270.954 177.106 265.487 200.839 261.621 210.039C249.887 237.639 229.087 260.039 203.621 272.439C192.021 278.173 178.021 282.706 176.554 281.239C176.021 280.706 175.621 251.773 175.621 216.839V153.239H172.554H169.487L169.221 218.573L168.954 283.906L159.221 285.106C153.354 285.773 145.754 285.773 140.554 285.106L131.621 283.906L131.221 218.173L130.954 152.573H127.621C125.754 152.573 124.287 152.973 124.287 153.506Z" fill="#926F34"/>
<path d="M147.621 153.906C147.087 154.706 146.821 180.306 147.087 210.706L147.621 265.906H151.221H154.821L154.554 209.506L154.287 153.239L151.354 152.839C149.887 152.573 148.154 153.106 147.621 153.906Z" fill="#926F34"/>
<path d="M186.287 153.906C185.887 154.573 185.887 156.439 186.287 157.906C187.087 160.439 188.154 160.706 197.354 160.306C207.354 159.906 207.621 159.773 207.621 156.573C207.621 153.373 207.354 153.239 197.354 152.839C191.221 152.573 186.821 152.973 186.287 153.906Z" fill="#926F34"/>
</svg>
