<svg width="294" height="270" viewBox="0 0 294 270" fill="none" xmlns="http://www.w3.org/2000/svg">
<path d="M37.136 245.056L36.176 246.976H26.96V245.272L29.216 243.304V230.776L26.48 230.056L27.44 228.136H36.656V229.84L34.376 231.832V244.336L37.136 245.056ZM47.072 246.976H41.528L35.048 237.52L41.72 231.616L38.912 230.032L39.872 228.112H47.528V229.816L40.16 236.32L45.488 243.904L48.032 245.056L47.072 246.976ZM70.2245 247H60.2885V245.296L63.1445 243.808L61.9205 240.784H54.9125L53.9285 243.232L57.2885 245.08L56.3285 247H48.3125V245.296L51.1205 243.208L56.8805 228.904L62.0165 227.68L68.6885 243.952L71.1845 245.08L70.2245 247ZM58.3685 232.072L55.8005 238.504H60.9845L58.3685 232.072ZM90.3691 231.808V246.976H87.8491L76.6891 235.096V243.784L80.6491 245.08L79.6891 247H71.9131V245.296L74.1691 243.328V231.616L71.4331 230.056L72.3931 228.136H76.9771L87.8491 239.68V231.328L83.9131 230.056L84.8731 228.136H92.6491V229.816L90.3691 231.808ZM111.923 231.616V239.56C111.923 241.24 111.491 242.68 110.627 243.88C109.779 245.08 108.723 245.984 107.459 246.592C106.195 247.184 104.963 247.48 103.763 247.48C102.147 247.48 100.699 247.168 99.4186 246.544C98.1546 245.904 97.1626 245.032 96.4426 243.928C95.7386 242.808 95.3866 241.552 95.3866 240.16V230.704L92.6506 230.056L93.6106 228.136H102.827V229.84L100.547 231.616V239.488C100.547 240.992 100.947 242.168 101.747 243.016C102.547 243.848 103.763 244.264 105.395 244.264C106.019 244.264 106.635 244.088 107.243 243.736C107.867 243.368 108.379 242.84 108.779 242.152C109.195 241.464 109.403 240.656 109.403 239.728V231.064L106.427 230.056L107.387 228.136H114.203V229.84L111.923 231.616ZM133.869 231.808V246.976H131.349L120.189 235.096V243.784L124.149 245.08L123.189 247H115.413V245.296L117.669 243.328V231.616L114.933 230.056L115.893 228.136H120.477L131.349 239.68V231.328L127.413 230.056L128.373 228.136H136.149V229.816L133.869 231.808ZM154.23 245.056L153.27 246.976H144.054V245.272L146.31 243.304V230.776L143.574 230.056L144.534 228.136H153.75V229.84L151.47 231.832V244.336L154.23 245.056ZM164.166 246.976H158.622L152.142 237.52L158.814 231.616L156.006 230.032L156.966 228.112H164.622V229.816L157.254 236.32L162.582 243.904L165.126 245.056L164.166 246.976ZM184.438 231.616V239.56C184.438 241.24 184.006 242.68 183.142 243.88C182.294 245.08 181.238 245.984 179.974 246.592C178.71 247.184 177.478 247.48 176.278 247.48C174.662 247.48 173.214 247.168 171.934 246.544C170.67 245.904 169.678 245.032 168.958 243.928C168.254 242.808 167.902 241.552 167.902 240.16V230.704L165.166 230.056L166.126 228.136H175.342V229.84L173.062 231.616V239.488C173.062 240.992 173.462 242.168 174.262 243.016C175.062 243.848 176.278 244.264 177.91 244.264C178.534 244.264 179.15 244.088 179.758 243.736C180.382 243.368 180.894 242.84 181.294 242.152C181.71 241.464 181.918 240.656 181.918 239.728V231.064L178.942 230.056L179.902 228.136H186.718V229.84L184.438 231.616ZM206.697 234.664L205.017 235.384L201.537 230.416H199.737V244.432L202.497 245.08L201.537 247H192.321V245.296L194.577 243.52V230.416H192.849L189.369 235.384L187.689 234.664V227.704L189.681 228.136H204.705L206.697 227.704V234.664ZM226.438 231.616V239.56C226.438 241.24 226.006 242.68 225.142 243.88C224.294 245.08 223.238 245.984 221.974 246.592C220.71 247.184 219.478 247.48 218.278 247.48C216.662 247.48 215.214 247.168 213.934 246.544C212.67 245.904 211.678 245.032 210.958 243.928C210.254 242.808 209.902 241.552 209.902 240.16V230.704L207.166 230.056L208.126 228.136H217.342V229.84L215.062 231.616V239.488C215.062 240.992 215.462 242.168 216.262 243.016C217.062 243.848 218.278 244.264 219.91 244.264C220.534 244.264 221.15 244.088 221.758 243.736C222.382 243.368 222.894 242.84 223.294 242.152C223.71 241.464 223.918 240.656 223.918 239.728V231.064L220.942 230.056L221.902 228.136H228.718V229.84L226.438 231.616ZM239.577 243.232C239.577 242.768 239.393 242.32 239.025 241.888C238.657 241.456 238.201 241.056 237.657 240.688C237.113 240.32 236.361 239.856 235.401 239.296C234.217 238.608 233.265 238.016 232.545 237.52C231.825 237.008 231.209 236.416 230.697 235.744C230.185 235.072 229.929 234.328 229.929 233.512C229.929 232.712 230.313 231.856 231.081 230.944C231.865 230.016 232.817 229.24 233.937 228.616C235.057 227.976 236.089 227.656 237.033 227.656C238.169 227.656 239.489 227.776 240.993 228.016C242.513 228.256 243.625 228.512 244.329 228.784V234.4H241.257C240.665 233.12 239.993 232.12 239.241 231.4C238.505 230.664 237.737 230.296 236.937 230.296C236.457 230.296 236.081 230.448 235.809 230.752C235.537 231.056 235.401 231.448 235.401 231.928C235.401 232.44 235.585 232.928 235.953 233.392C236.337 233.84 236.809 234.256 237.369 234.64C237.945 235.008 238.721 235.472 239.697 236.032C240.849 236.688 241.777 237.264 242.481 237.76C243.201 238.24 243.809 238.808 244.305 239.464C244.801 240.12 245.049 240.848 245.049 241.648C245.049 242.448 244.633 243.312 243.801 244.24C242.985 245.152 241.985 245.928 240.801 246.568C239.617 247.192 238.537 247.504 237.561 247.504C236.377 247.504 234.969 247.384 233.337 247.144C231.705 246.904 230.529 246.648 229.809 246.376V240.76H232.881C233.521 242.056 234.265 243.064 235.113 243.784C235.961 244.504 236.817 244.864 237.681 244.864C238.257 244.864 238.713 244.704 239.049 244.384C239.401 244.064 239.577 243.68 239.577 243.232ZM264.805 231.616V239.56C264.805 241.24 264.373 242.68 263.509 243.88C262.661 245.08 261.605 245.984 260.341 246.592C259.077 247.184 257.845 247.48 256.645 247.48C255.029 247.48 253.581 247.168 252.301 246.544C251.037 245.904 250.045 245.032 249.325 243.928C248.621 242.808 248.269 241.552 248.269 240.16V230.704L245.533 230.056L246.493 228.136H255.709V229.84L253.429 231.616V239.488C253.429 240.992 253.829 242.168 254.629 243.016C255.429 243.848 256.645 244.264 258.277 244.264C258.901 244.264 259.517 244.088 260.125 243.736C260.749 243.368 261.261 242.84 261.661 242.152C262.077 241.464 262.285 240.656 262.285 239.728V231.064L259.309 230.056L260.269 228.136H267.085V229.84L264.805 231.616Z" fill="#926F34"/>
<path d="M143.946 3.38846C143.169 4.26268 142.974 6.01113 143.363 7.95386C143.751 9.70231 144.237 22.2329 144.528 35.6377L145.111 60.2131H141.809C137.826 60.2131 136.758 60.9902 138.215 62.8358C139.089 63.8071 138.506 64.0985 134.718 64.0985C131.027 64.0985 130.055 64.4871 129.667 66.0413C129.278 67.5954 128.21 67.984 123.256 68.1783C119.662 68.3725 117.233 68.9553 116.942 69.6353C116.65 70.6067 122.867 70.8981 145.888 70.8981C168.91 70.8981 175.126 70.6067 174.835 69.6353C174.544 68.9553 171.824 68.2754 167.647 67.984C163.664 67.6926 161.43 67.2069 162.207 66.7212C164.441 65.2642 162.304 64.0985 157.35 64.0985C153.368 64.0985 152.688 63.9043 153.562 62.8358C155.019 60.9902 153.951 60.2131 149.482 60.2131C146.277 60.2131 145.888 60.0188 146.763 58.8532C147.637 57.8818 147.928 50.6938 147.734 33.9863C147.734 21.0672 147.928 10.2851 148.22 9.99372C149.288 8.92522 148.802 4.26268 147.637 3.09705C146.083 1.54287 145.403 1.64001 143.946 3.38846Z" fill="#926F34"/>
<path d="M120.05 15.0448C120.827 17.9589 115.096 41.563 113.154 43.8943C111.891 45.2542 111.988 45.7398 113.736 47.4883C118.399 52.1508 128.598 52.1508 132.775 47.5854C135.106 45.0599 134.038 44.1857 128.598 44.1857H124.033L123.741 31.9465L123.45 19.7074L127.335 19.6102C129.375 19.5131 132.289 19.0274 133.746 18.4446C135.106 17.9589 137.826 17.4732 139.672 17.4732C141.517 17.4732 142.974 16.9876 142.974 16.5019C142.974 14.5592 139.672 14.2677 135.106 15.8219C127.918 18.4446 122.576 17.8618 122.576 14.462C122.576 13.3935 121.896 12.6164 121.022 12.6164C119.856 12.6164 119.565 13.1992 120.05 15.0448ZM122.576 32.5293V44.6714H119.176C116.65 44.6714 115.776 44.2828 115.776 43.02C115.776 40.106 121.022 20.3873 121.799 20.3873C122.187 20.3873 122.576 25.8269 122.576 32.5293Z" fill="#926F34"/>
<path d="M169.201 14.4621C169.201 17.8618 163.859 18.4446 156.671 15.822C152.105 14.2678 148.802 14.5592 148.802 16.5019C148.802 16.9876 150.26 17.4733 152.105 17.4733C153.951 17.4733 156.671 17.959 158.03 18.4446C159.487 19.0274 162.79 19.6103 165.51 19.8045C168.133 19.9988 170.367 20.2902 170.561 20.4845C170.755 20.6788 172.115 25.827 173.572 31.8494C176.389 43.5058 176.195 45.1571 172.018 44.4771C169.784 44.1857 169.687 43.7972 169.104 34.4721C168.618 24.6613 167.938 26.3127 167.841 37.8719C167.744 44.0886 167.744 44.1857 164.927 44.4771C160.945 44.9628 160.362 43.7972 161.916 38.3575C164.247 30.1981 166.19 21.0673 165.413 21.9415C165.024 22.4272 163.47 27.3812 162.013 33.015C160.459 38.6489 158.808 43.7972 158.322 44.4771C155.796 47.4883 165.218 52.248 171.532 51.0824C173.184 50.791 175.806 49.4311 177.458 48.1683C179.983 46.1284 180.177 45.6427 178.915 44.1857C176.875 41.7573 171.047 18.4446 171.727 15.2391C172.115 13.2964 171.921 12.6165 170.755 12.6165C169.881 12.6165 169.201 13.3936 169.201 14.4621Z" fill="#926F34"/>
<path d="M126.558 23.787C126.558 24.2727 127.627 28.6438 128.89 33.5006C130.249 38.2603 131.124 40.4944 130.832 38.2603C130.347 34.3748 126.753 21.9414 126.558 23.787Z" fill="#926F34"/>
<path d="M74.2019 63.3215C72.4535 65.07 72.842 67.0127 74.8819 67.0127C77.116 67.0127 78.1845 64.5843 76.5332 63.2244C75.659 62.5444 74.979 62.5444 74.2019 63.3215Z" fill="#926F34"/>
<path d="M214.564 63.7101C213.689 64.6814 214.952 67.0127 216.409 67.0127C217.186 67.0127 217.769 66.1385 217.769 65.07C217.769 63.2244 215.924 62.4473 214.564 63.7101Z" fill="#926F34"/>
<path d="M61.38 76.6292C60.5057 77.5034 60.0201 79.1547 60.2143 80.3203C60.6029 83.1373 64.4883 83.0401 65.8482 80.1261C66.6253 78.4747 66.431 77.7948 64.8769 76.6292C63.0313 75.2692 62.7399 75.2692 61.38 76.6292Z" fill="#926F34"/>
<path d="M226.9 77.1148C225.346 77.9891 225.151 78.5719 225.929 80.1261C227.483 83.0401 230.98 83.1373 231.562 80.3203C232.145 77.212 229.62 75.5607 226.9 77.1148Z" fill="#926F34"/>
<path d="M94.9891 81.2917C93.8235 82.4573 94.4063 86.2456 95.9605 86.8284C98.0003 87.6055 190.474 87.6055 194.359 86.8284C196.982 86.2456 197.468 85.7599 197.176 83.6229L196.885 81.0974L146.277 80.9031C118.399 80.7089 95.3776 80.9031 94.9891 81.2917Z" fill="#926F34"/>
<path d="M105.285 93.9194C103.634 94.2108 103.148 94.8907 103.343 96.4449L103.634 98.5819H145.888C188.143 98.5819 188.143 98.5819 188.434 96.5421C188.725 94.6965 188.143 94.4051 183.577 93.9194C177.943 93.2394 108.88 93.2394 105.285 93.9194Z" fill="#926F34"/>
<path d="M55.2604 95.5707C54.8719 96.4449 53.512 97.1249 52.0549 97.1249C49.5294 97.1249 49.5294 97.222 50.9864 98.8733C51.9578 99.8447 52.6377 101.496 52.6377 102.565C52.6377 104.022 53.3177 104.41 56.0375 104.41C58.563 104.41 59.4373 104.022 59.4373 102.856C59.4373 101.982 60.1172 100.719 60.8943 100.039C62.9342 98.2905 62.7399 97.1249 60.3115 97.1249C59.1459 97.1249 57.6888 96.4449 57.0089 95.5707C55.9404 94.0165 55.8432 94.0165 55.2604 95.5707Z" fill="#926F34"/>
<path d="M234.768 95.3764C234.379 96.3478 233.02 97.1249 231.757 97.1249C229.134 97.1249 228.94 97.8048 230.883 100.33C231.562 101.399 232.048 102.662 231.757 103.342C231.465 104.119 232.534 104.507 235.254 104.41C238.653 104.41 239.139 104.119 239.139 102.176C239.139 101.01 239.819 99.7475 240.596 99.4561C242.733 98.5819 242.345 97.1249 240.013 97.1249C238.848 97.1249 237.294 96.3478 236.614 95.3764C235.448 93.8222 235.351 93.8222 234.768 95.3764Z" fill="#926F34"/>
<path d="M103.634 106.839C103.343 107.421 103.343 108.684 103.634 109.753C104.217 111.501 105.091 111.695 111.502 111.695H118.69V108.781V105.867H111.502C107.52 105.867 103.926 106.353 103.634 106.839Z" fill="#926F34"/>
<path d="M127.433 106.547C127.433 107.033 127.238 128.111 127.141 153.464L126.947 199.603L123.644 199.312C119.273 199.021 107.034 194.067 100.04 189.793C92.755 185.324 79.8358 173.182 74.3962 165.509C65.654 153.367 60.3115 139.088 58.563 123.546C58.0774 119.078 57.4945 115.192 57.106 114.901C56.8146 114.609 55.8432 114.609 54.969 114.998C53.7062 115.484 53.512 116.552 54.0948 121.7C58.3688 159.583 82.5557 190.181 117.719 202.032C128.404 205.626 131.707 206.014 146.277 205.917C158.808 205.917 162.596 205.529 169.687 203.683C185.811 199.409 205.336 187.267 215.438 175.125C228.94 159.001 237.973 137.048 238.168 120.146C238.168 115.289 237.973 114.609 236.225 114.609C234.671 114.609 234.282 115.289 234.282 117.912C234.282 123.74 230.3 141.03 227.483 147.733C218.935 167.84 203.782 184.159 185.229 193.192C176.778 197.369 166.578 200.672 165.51 199.603C165.121 199.215 164.83 178.136 164.83 152.687V106.353H162.596H160.362L160.167 153.95L159.973 201.546L152.882 202.42C148.608 202.906 143.071 202.906 139.283 202.42L132.775 201.546L132.484 153.658L132.289 105.867H129.861C128.501 105.867 127.433 106.159 127.433 106.547Z" fill="#926F34"/>
<path d="M144.431 106.838C144.043 107.421 143.849 126.071 144.043 148.218L144.431 188.433H147.054H149.677L149.482 147.344L149.288 106.353L147.151 106.061C146.083 105.867 144.82 106.256 144.431 106.838Z" fill="#926F34"/>
<path d="M172.601 106.838C172.309 107.324 172.309 108.684 172.601 109.753C173.184 111.598 173.961 111.792 180.663 111.501C187.948 111.21 188.143 111.112 188.143 108.781C188.143 106.45 187.948 106.353 180.663 106.061C176.195 105.867 172.989 106.159 172.601 106.838Z" fill="#926F34"/>
</svg>
